M48
; #@! TF.GenerationSoftware,LibrePCB,LibrePCB,1.3.0
; #@! TF.CreationDate,2025-10-14T22:14:51
; #@! TF.ProjectId,GateGuardian - Sommer Twist 350 Swing Gate,8a633c5c-b075-4c35-a81d-aba18a590e16,v1
; #@! TF.Part,Single
; #@! TF.SameCoordinates
; #@! TF.FileFunction,Plated,1,2,PTH
FMAT,2
METRIC,TZ
; #@! TA.AperFunction,ViaDrill
T1C0.3
; #@! TA.AperFunction,ComponentDrill
T2C0.7
; #@! TA.AperFunction,ComponentDrill
T3C0.75
; #@! TA.AperFunction,ComponentDrill
T4C0.8
; #@! TA.AperFunction,ComponentDrill
T5C0.9
; #@! TA.AperFunction,ComponentDrill
T6C1.0
; #@! TA.AperFunction,ComponentDrill
T7C1.1
; #@! TA.AperFunction,ComponentDrill
T8C1.2
%
G90
G05
M71
T1
X99.695Y52.07
X132.04Y9.485
X132.04Y17.74
X18.415Y37.465
X18.415Y22.225
X81.28Y50.8
X81.28Y31.115
X130.175Y31.115
X31.115Y26.035
X75.565Y24.765
X109.855Y24.765
X83.185Y24.765
X95.25Y24.765
X28.575Y28.575
X104.14Y9.525
X104.14Y17.78
X85.09Y26.67
X77.47Y26.67
X72.39Y21.59
X80.01Y21.59
X92.71Y21.59
X124.46Y21.59
X116.8Y9.485
X116.8Y17.74
X117.475Y53.34
X17.145Y24.13
X17.145Y36.195
X15.875Y34.925
X15.875Y25.4
X26.035Y15.875
X20.955Y15.875
X69.85Y33.02
T2
X35.56Y5.3125
X37.56Y5.3125
X33.56Y5.3125
X70.485Y5.3125
X72.485Y5.3125
X68.485Y5.3125
T3
X106.68Y43.18
X106.68Y38.1
X106.68Y40.64
X124.46Y43.18
X124.46Y38.1
X124.46Y40.64
X88.9Y43.18
X88.9Y38.1
X88.9Y40.64
T4
X106.68Y33.655
X106.68Y36.195
X15.875Y10.16
X15.875Y12.7
X133.35Y26.67
X130.81Y26.67
X114.3Y12.7
X114.3Y15.24
X111.4425Y59.055
X111.4425Y56.515
X106.68Y22.86
X99.06Y17.78
X106.68Y20.32
X99.06Y22.86
X99.06Y20.32
X106.68Y17.78
X120.65Y26.67
X120.65Y29.21
X113.03Y26.67
X113.03Y29.21
X23.495Y4.92125
X23.495Y2.38125
X111.4425Y62.23
X111.4425Y64.77
X129.54Y12.7
X129.54Y15.24
X23.495Y10.16
X23.495Y12.7
X102.87Y26.67
X100.33Y26.67
X87.63Y17.78
X87.63Y20.32
X34.29Y43.18
X36.83Y43.18
X105.41Y26.67
X105.41Y29.21
X77.7875Y62.23
X77.7875Y64.77
X106.68Y12.7
X106.68Y15.24
X77.7875Y59.055
X77.7875Y56.515
X134.62Y12.7
X134.62Y15.24
X119.38Y12.7
X119.38Y15.24
X124.46Y33.655
X124.46Y36.195
X60.325Y13.97
X45.085Y13.97
X60.325Y52.07
X45.085Y52.07
X135.89Y26.67
X135.89Y29.21
X118.11Y26.67
X115.57Y26.67
X97.79Y26.67
X97.79Y29.21
X94.9325Y59.055
X94.9325Y56.515
X15.875Y4.92125
X15.875Y2.38125
X135.89Y22.86
X128.27Y17.78
X135.89Y20.32
X128.27Y22.86
X128.27Y20.32
X135.89Y17.78
X120.65Y22.86
X113.03Y17.78
X120.65Y20.32
X113.03Y22.86
X113.03Y20.32
X120.65Y17.78
X101.6Y12.7
X101.6Y15.24
X83.82Y17.78
X81.28Y17.78
X78.74Y17.78
X78.74Y20.32
X88.9Y33.655
X88.9Y36.195
X94.9325Y62.23
X94.9325Y64.77
X128.27Y26.67
X128.27Y29.21
T5
X96.52Y15.24
X96.52Y12.7
X8.255Y8.89
X8.255Y6.35
X8.255Y11.43
X8.255Y3.81
X3.175Y6.35
X3.175Y3.81
T6
X88.9Y45.72
X88.9Y53.34
X124.46Y45.72
X124.46Y53.34
X106.68Y45.72
X106.68Y53.34
X26.67Y26.67
X3.81Y39.37
X3.81Y54.61
X26.67Y24.13
X3.81Y41.91
X26.67Y44.45
X26.67Y39.37
X3.81Y44.45
X3.81Y52.07
X3.81Y31.75
X3.81Y34.29
X3.81Y36.83
X26.67Y29.21
X26.67Y41.91
X26.67Y49.53
X26.67Y54.61
X3.81Y24.13
X26.67Y46.99
X3.81Y46.99
X26.67Y34.29
X3.81Y49.53
X3.81Y26.67
X26.67Y52.07
X26.67Y31.75
X26.67Y36.83
X3.81Y29.21
T7
X93.98Y34.18
X93.98Y39.26
X93.98Y51.96
X101.6Y44.34
X101.6Y34.18
X101.6Y51.96
X101.6Y39.26
X93.98Y44.34
X76.2Y34.18
X76.2Y39.26
X76.2Y51.96
X83.82Y44.34
X83.82Y34.18
X83.82Y51.96
X83.82Y39.26
X76.2Y44.34
X111.76Y34.18
X111.76Y39.26
X111.76Y51.96
X119.38Y44.34
X119.38Y34.18
X119.38Y51.96
X119.38Y39.26
X111.76Y44.34
T8
X86.32Y6.35
X81.32Y6.35
X117.1975Y60.325
X122.1975Y60.325
X116.8Y6.35
X111.8Y6.35
X132.04Y6.35
X127.04Y6.35
X101.56Y6.35
X96.56Y6.35
X84.1775Y60.325
X89.1775Y60.325
X129.58Y60.325
X134.58Y60.325
X100.6875Y60.325
X105.6875Y60.325
T0
M30
